<svg xmlns="http://www.w3.org/2000/svg" xmlns:xlink="http://www.w3.org/1999/xlink" style="display: none;">
    <symbol id="admin" viewBox="0 0 24 24" fill="currentColor">
        <path fill-rule="evenodd" d="M15.75 1.5a6.75 6.75 0 0 0-6.651 7.906c.067.39-.032.717-.221.906l-6.5 6.499a3 3 0 0 0-.878 2.121v2.818c0 .414.336.75.75.75H6a.75.75 0 0 0 .75-.75v-1.5h1.5A.75.75 0 0 0 9 19.5V18h1.5a.75.75 0 0 0 .53-.22l2.658-2.658c.19-.189.517-.288.906-.22A6.75 6.75 0 1 0 15.75 1.5Zm0 3a.75.75 0 0 0 0 1.5A2.25 2.25 0 0 1 18 8.25a.75.75 0 0 0 1.5 0 3.75 3.75 0 0 0-3.75-3.75Z" clip-rule="evenodd" />
    </symbol>

    <symbol id="breakdown" viewBox="0 0 20 20" fill="currentColor">
        <path fill-rule="evenodd" d="M9.47 15.28a.75.75 0 0 0 1.06 0l4.25-4.25a.75.75 0 1 0-1.06-1.06L10 13.69 6.28 9.97a.75.75 0 0 0-1.06 1.06l4.25 4.25ZM5.22 6.03l4.25 4.25a.75.75 0 0 0 1.06 0l4.25-4.25a.75.75 0 0 0-1.06-1.06L10 8.69 6.28 4.97a.75.75 0 0 0-1.06 1.06Z" clip-rule="evenodd" />
    </symbol>

    <symbol id="users" viewBox="0 0 24 24" fill="currentColor" >
        <path d="M4.5 6.375a4.125 4.125 0 1 1 8.25 0 4.125 4.125 0 0 1-8.25 0ZM14.25 8.625a3.375 3.375 0 1 1 6.75 0 3.375 3.375 0 0 1-6.75 0ZM1.5 19.125a7.125 7.125 0 0 1 14.25 0v.003l-.001.119a.75.75 0 0 1-.363.63 13.067 13.067 0 0 1-6.761 1.873c-2.472 0-4.786-.684-6.76-1.873a.75.75 0 0 1-.364-.63l-.001-.122ZM17.25 19.128l-.001.144a2.25 2.25 0 0 1-.233.96 10.088 10.088 0 0 0 5.06-1.01.75.75 0 0 0 .42-.643 4.875 4.875 0 0 0-6.957-4.611 8.586 8.586 0 0 1 1.71 5.157v.003Z" />
    </symbol>

    <symbol id="aggrenments" viewBox="0 0 24 24" fill="currentColor">
        <path fill-rule="evenodd" d="M4.125 3C3.089 3 2.25 3.84 2.25 4.875V18a3 3 0 0 0 3 3h15a3 3 0 0 1-3-3V4.875C17.25 3.839 16.41 3 15.375 3H4.125ZM12 9.75a.75.75 0 0 0 0 1.5h1.5a.75.75 0 0 0 0-1.5H12Zm-.75-2.25a.75.75 0 0 1 .75-.75h1.5a.75.75 0 0 1 0 1.5H12a.75.75 0 0 1-.75-.75ZM6 12.75a.75.75 0 0 0 0 1.5h7.5a.75.75 0 0 0 0-1.5H6Zm-.75 3.75a.75.75 0 0 1 .75-.75h7.5a.75.75 0 0 1 0 1.5H6a.75.75 0 0 1-.75-.75ZM6 6.75a.75.75 0 0 0-.75.75v3c0 .414.336.75.75.75h3a.75.75 0 0 0 .75-.75v-3A.75.75 0 0 0 9 6.75H6Z" clip-rule="evenodd" />
        <path d="M18.75 6.75h1.875c.621 0 1.125.504 1.125 1.125V18a1.5 1.5 0 0 1-3 0V6.75Z" />
    </symbol>

    <symbol id="notifications" viewBox="0 0 24 24" fill="currentColor">
        <path fill-rule="evenodd" d="M10.5 3A1.501 1.501 0 0 0 9 4.5h6A1.5 1.5 0 0 0 13.5 3h-3Zm-2.693.178A3 3 0 0 1 10.5 1.5h3a3 3 0 0 1 2.694 1.678c.497.042.992.092 1.486.15 1.497.173 2.57 1.46 2.57 2.929V19.5a3 3 0 0 1-3 3H6.75a3 3 0 0 1-3-3V6.257c0-1.47 1.073-2.756 2.57-2.93.493-.057.989-.107 1.487-.15Z" clip-rule="evenodd" />
    </symbol>

    <symbol id="payments" viewBox="0 0 24 24" fill="currentColor">
        <path d="M12 7.5a2.25 2.25 0 1 0 0 4.5 2.25 2.25 0 0 0 0-4.5Z" />
        <path fill-rule="evenodd" d="M1.5 4.875C1.5 3.839 2.34 3 3.375 3h17.25c1.035 0 1.875.84 1.875 1.875v9.75c0 1.036-.84 1.875-1.875 1.875H3.375A1.875 1.875 0 0 1 1.5 14.625v-9.75ZM8.25 9.75a3.75 3.75 0 1 1 7.5 0 3.75 3.75 0 0 1-7.5 0ZM18.75 9a.75.75 0 0 0-.75.75v.008c0 .414.336.75.75.75h.008a.75.75 0 0 0 .75-.75V9.75a.75.75 0 0 0-.75-.75h-.008ZM4.5 9.75A.75.75 0 0 1 5.25 9h.008a.75.75 0 0 1 .75.75v.008a.75.75 0 0 1-.75.75H5.25a.75.75 0 0 1-.75-.75V9.75Z" clip-rule="evenodd" />
        <path d="M2.25 18a.75.75 0 0 0 0 1.5c5.4 0 10.63.722 15.6 2.075 1.19.324 2.4-.558 2.4-1.82V18.75a.75.75 0 0 0-.75-.75H2.25Z" />
    </symbol>

    <symbol id="reports" viewBox="0 0 24 24" fill="currentColor">
        <path fill-rule="evenodd" d="M12 6.75a5.25 5.25 0 0 1 6.775-5.025.75.75 0 0 1 .313 1.248l-3.32 3.319c.063.475.276.934.641 1.299.365.365.824.578 1.3.64l3.318-3.319a.75.75 0 0 1 1.248.313 5.25 5.25 0 0 1-5.472 6.756c-1.018-.086-1.87.1-2.309.634L7.344 21.3A3.298 3.298 0 1 1 2.7 16.657l8.684-7.151c.533-.44.72-1.291.634-2.309A5.342 5.342 0 0 1 12 6.75ZM4.117 19.125a.75.75 0 0 1 .75-.75h.008a.75.75 0 0 1 .75.75v.008a.75.75 0 0 1-.75.75h-.008a.75.75 0 0 1-.75-.75v-.008Z" clip-rule="evenodd" />
        <path d="m10.076 8.64-2.201-2.2V4.874a.75.75 0 0 0-.364-.643l-3.75-2.25a.75.75 0 0 0-.916.113l-.75.75a.75.75 0 0 0-.113.916l2.25 3.75a.75.75 0 0 0 .643.364h1.564l2.062 2.062 1.575-1.297Z" />
        <path fill-rule="evenodd" d="m12.556 17.329 4.183 4.182a3.375 3.375 0 0 0 4.773-4.773l-3.306-3.305a6.803 6.803 0 0 1-1.53.043c-.394-.034-.682-.006-.867.042a.589.589 0 0 0-.167.063l-3.086 3.748Zm3.414-1.36a.75.75 0 0 1 1.06 0l1.875 1.876a.75.75 0 1 1-1.06 1.06L15.97 17.03a.75.75 0 0 1 0-1.06Z" clip-rule="evenodd" />
    </symbol>

    <symbol id="tanks" viewBox="0 0 24 24" fill="currentColor">
        <path fill-rule="evenodd" d="M3 6a3 3 0 0 1 3-3h12a3 3 0 0 1 3 3v12a3 3 0 0 1-3 3H6a3 3 0 0 1-3-3V6Zm4.5 7.5a.75.75 0 0 1 .75.75v2.25a.75.75 0 0 1-1.5 0v-2.25a.75.75 0 0 1 .75-.75Zm3.75-1.5a.75.75 0 0 0-1.5 0v4.5a.75.75 0 0 0 1.5 0V12Zm2.25-3a.75.75 0 0 1 .75.75v6.75a.75.75 0 0 1-1.5 0V9.75A.75.75 0 0 1 13.5 9Zm3.75-1.5a.75.75 0 0 0-1.5 0v9a.75.75 0 0 0 1.5 0v-9Z" clip-rule="evenodd" />
    </symbol>

    <symbol id="close" fill="none" viewBox="0 0 18 16">
        <path stroke="currentColor" stroke-linecap="round" stroke-linejoin="round" stroke-width="2" d="M1 8h11m0 0L8 4m4 4-4 4m4-11h3a2 2 0 0 1 2 2v10a2 2 0 0 1-2 2h-3" />
    </symbol>

    <symbol id="delete" fill="currentColor" viewBox="0 0 24 24">
        <path fill-rule="evenodd" d="M16.5 4.478v.227a48.816 48.816 0 0 1 3.878.512.75.75 0 1 1-.256 1.478l-.209-.035-1.005 13.07a3 3 0 0 1-2.991 2.77H8.084a3 3 0 0 1-2.991-2.77L4.087 6.66l-.209.035a.75.75 0 0 1-.256-1.478A48.567 48.567 0 0 1 7.5 4.705v-.227c0-1.564 1.213-2.9 2.816-2.951a52.662 52.662 0 0 1 3.369 0c1.603.051 2.815 1.387 2.815 2.951Zm-6.136-1.452a51.196 51.196 0 0 1 3.273 0C14.39 3.05 15 3.684 15 4.478v.113a49.488 49.488 0 0 0-6 0v-.113c0-.794.609-1.428 1.364-1.452Zm-.355 5.945a.75.75 0 1 0-1.5.058l.347 9a.75.75 0 1 0 1.499-.058l-.346-9Zm5.48.058a.75.75 0 1 0-1.498-.058l-.347 9a.75.75 0 0 0 1.5.058l.345-9Z" clip-rule="evenodd" />
    </symbol>
</svg>